<svg width="216" height="216" viewBox="0 0 216 216" fill="none" xmlns="http://www.w3.org/2000/svg">
<path d="M85.75 28.25H47C42.7198 28.25 39.25 31.7198 39.25 36V90.25C39.25 94.5302 42.7198 98 47 98H85.75C90.0302 98 93.5 94.5302 93.5 90.25V36C93.5 31.7198 90.0302 28.25 85.75 28.25Z" stroke="#9D41FF" stroke-width="10" stroke-linecap="round" stroke-linejoin="round"/>
<path d="M171 28.25H132.25C127.97 28.25 124.5 31.7198 124.5 36V59.25C124.5 63.5302 127.97 67 132.25 67H171C175.28 67 178.75 63.5302 178.75 59.25V36C178.75 31.7198 175.28 28.25 171 28.25Z" stroke="#4151FF" stroke-width="10" stroke-linecap="round" stroke-linejoin="round"/>
<path d="M171 98H132.25C127.97 98 124.5 101.47 124.5 105.75V160C124.5 164.28 127.97 167.75 132.25 167.75H171C175.28 167.75 178.75 164.28 178.75 160V105.75C178.75 101.47 175.28 98 171 98Z" stroke="#41C6FF" stroke-width="10" stroke-linecap="round" stroke-linejoin="round"/>
<path d="M85.75 129H47C42.7198 129 39.25 132.47 39.25 136.75V160C39.25 164.28 42.7198 167.75 47 167.75H85.75C90.0302 167.75 93.5 164.28 93.5 160V136.75C93.5 132.47 90.0302 129 85.75 129Z" stroke="#4151FF" stroke-width="10" stroke-linecap="round" stroke-linejoin="round"/>
</svg>
